<svg version="1.1" id="Layer_1" xmlns="http://www.w3.org/2000/svg" xmlns:xlink="http://www.w3.org/1999/xlink" x="0px" y="0px"
	 width="100%" viewBox="0 0 500 500" enable-background="new 0 0 500 500" xml:space="preserve">
<path fill="#000000" opacity="1.000000" stroke="none" 
	d="
M326.000000,501.000000 
	C217.333359,501.000000 109.166718,501.000000 1.000058,501.000000 
	C1.000039,334.333405 1.000039,167.666794 1.000019,1.000148 
	C167.666565,1.000098 334.333130,1.000098 500.999756,1.000049 
	C500.999847,167.666519 500.999847,334.333038 500.999939,500.999786 
	C442.833344,501.000000 384.666656,501.000000 326.000000,501.000000 
M426.997650,291.500000 
	C426.997650,244.182297 426.787567,196.863083 427.127869,149.547821 
	C427.227783,135.657959 417.465729,123.657021 401.798553,123.736748 
	C300.168152,124.253990 198.533768,124.055656 96.900871,123.936256 
	C83.808632,123.920876 75.026382,134.981873 75.020874,145.553406 
	C74.984200,215.863434 74.986320,286.173523 75.017654,356.483582 
	C75.022751,367.907745 85.211670,377.983398 96.717056,377.985687 
	C199.516373,378.006195 302.315674,378.000183 405.114990,377.975555 
	C406.752106,377.975189 408.452087,377.866486 410.016083,377.427948 
	C420.258545,374.556335 426.958282,365.520386 426.983551,354.479462 
	C427.030853,333.819763 426.997467,313.159821 426.997650,291.500000 
z"/>
<path fill="#018038" opacity="1.000000" stroke="none" 
	d="
M426.997650,292.000000 
	C426.997467,313.159821 427.030853,333.819763 426.983551,354.479462 
	C426.958282,365.520386 420.258545,374.556335 410.016083,377.427948 
	C408.452087,377.866486 406.752106,377.975189 405.114990,377.975555 
	C302.315674,378.000183 199.516373,378.006195 96.717056,377.985687 
	C85.211670,377.983398 75.022751,367.907745 75.017654,356.483582 
	C74.986320,286.173523 74.984200,215.863434 75.020874,145.553406 
	C75.026382,134.981873 83.808632,123.920876 96.900871,123.936256 
	C198.533768,124.055656 300.168152,124.253990 401.798553,123.736748 
	C417.465729,123.657021 427.227783,135.657959 427.127869,149.547821 
	C426.787567,196.863083 426.997650,244.182297 426.997650,292.000000 
M224.779388,268.006561 
	C238.387543,267.885529 251.995697,267.764465 265.586761,268.628265 
	C265.404144,273.446472 265.100189,278.264221 265.083771,283.083008 
	C265.073669,286.045807 266.376678,288.498596 269.753174,288.348755 
	C273.137970,288.198547 277.029175,288.411163 279.776855,286.846466 
	C292.312439,279.707977 304.486145,271.937164 316.864410,264.517975 
	C325.681671,259.233154 334.111053,252.741074 343.623505,249.312546 
	C356.637695,244.621918 360.384979,248.597366 359.835754,260.884003 
	C359.553436,267.199982 358.905273,273.520172 359.017548,279.827850 
	C359.147186,287.112579 363.666656,291.858398 370.864014,291.947113 
	C376.202820,292.013000 381.556488,290.874054 386.921417,290.269745 
	C387.033844,287.971313 387.153809,286.658569 387.154144,285.345856 
	C387.163361,248.514496 386.853577,211.679108 387.336700,174.854095 
	C387.492523,162.978088 378.333832,153.221420 365.269775,153.262695 
	C289.107971,153.503342 212.944580,153.503967 136.782791,153.258652 
	C124.151947,153.217987 114.429100,162.413727 114.633575,175.265335 
	C115.195534,210.587830 114.827019,245.925125 114.826706,281.256561 
	C114.826698,282.837250 114.826706,284.417969 114.826706,286.611298 
	C122.300095,281.742554 128.842987,276.936005 135.893326,273.050171 
	C142.105545,269.626282 148.706482,266.666779 155.461380,264.533081 
	C162.907028,262.181213 167.355072,265.624817 168.269211,273.318115 
	C168.661926,276.623169 168.706161,279.968628 169.061371,283.279358 
	C169.753937,289.734497 174.318176,293.247742 180.612122,291.647736 
	C184.752945,290.595093 188.955963,289.129211 192.617065,286.974792 
	C202.335007,281.256195 211.774078,275.063690 221.821075,268.850250 
	C222.480820,268.583588 223.140549,268.316895 224.779388,268.006561 
M349.156006,307.420563 
	C343.582123,307.420563 338.008270,307.420563 332.447083,307.420563 
	C332.447083,324.009644 332.447083,339.754028 332.447083,356.381622 
	C341.087097,355.961395 349.575928,356.209869 357.837708,354.958801 
	C365.932739,353.733002 370.007935,346.916382 367.885254,339.023163 
	C367.027710,335.834351 364.200134,333.175293 362.220734,330.202606 
	C366.861969,326.243652 368.462799,321.975494 366.742981,316.602722 
	C365.016449,311.209106 360.733551,308.923584 355.527008,308.008026 
	C353.731049,307.692200 351.891235,307.626007 349.156006,307.420563 
M304.189850,355.978088 
	C313.951172,355.266663 321.158722,350.634338 323.821014,341.115540 
	C326.663818,330.951324 326.293396,320.825439 317.822357,312.997803 
	C315.376801,310.737976 311.938171,308.758270 308.718628,308.296295 
	C302.058624,307.340668 295.239960,307.490662 288.279510,307.176636 
	C288.169006,309.225800 288.039978,310.517883 288.038727,311.810120 
	C288.024384,326.389343 288.029633,340.968567 288.029633,356.005829 
	C293.379547,356.005829 298.318817,356.005829 304.189850,355.978088 
M212.108551,345.468781 
	C212.108551,348.903717 212.108551,352.338684 212.108551,356.641724 
	C215.944565,355.866852 219.007950,355.248016 223.403976,354.360016 
	C231.449860,359.422882 240.544235,356.663483 243.542969,346.572418 
	C245.435684,340.203217 245.375839,333.712860 242.836426,327.503937 
	C239.739014,319.930786 232.036240,317.209625 224.700027,320.828979 
	C223.893051,321.227112 223.055649,321.563629 221.759964,322.138214 
	C221.759964,316.177948 221.759964,310.736603 221.759964,305.240417 
	C218.395172,305.240417 215.372238,305.240417 212.108627,305.240417 
	C212.108627,318.574371 212.108627,331.525330 212.108551,345.468781 
M275.977142,322.403198 
	C267.205902,317.071320 257.114716,318.820923 252.188309,326.527649 
	C246.607468,335.258179 248.570480,348.247650 256.278625,353.593445 
	C264.011200,358.956268 275.453644,357.296448 280.820709,349.857147 
	C279.434387,348.298737 278.013062,346.700989 276.608368,345.121918 
	C267.962952,351.384552 260.670563,349.644958 259.434662,340.804077 
	C266.918213,340.804077 274.346039,340.804077 281.840973,340.804077 
	C282.141846,333.913818 281.683319,327.707031 275.977142,322.403198 
M204.938995,322.737701 
	C202.923859,316.617798 198.530594,321.540619 195.126404,319.719147 
	C195.126404,327.643585 195.137268,334.609955 195.122818,341.576263 
	C195.112106,346.741730 193.163467,348.964630 188.660324,348.860596 
	C183.782852,348.747986 183.273315,345.335083 183.276535,341.569122 
	C183.282623,334.480377 183.278290,327.391663 183.278290,320.273132 
	C179.810379,320.273132 176.920013,320.273132 173.907501,320.273132 
	C173.907501,328.884125 173.660141,337.190399 173.977386,345.475037 
	C174.291916,353.688354 180.271744,358.099152 188.318939,356.348633 
	C190.661346,355.839111 192.850754,354.626190 195.116882,353.733093 
	C197.088776,356.400940 197.735687,356.524536 204.940079,355.456177 
	C204.940079,344.914124 204.940079,334.307373 204.938995,322.737701 
M143.979950,327.513153 
	C143.979950,336.935150 143.979950,346.357147 143.979950,355.716064 
	C147.644135,355.716064 150.711609,355.716064 154.265488,355.716064 
	C154.265488,342.215637 154.265488,329.013977 154.265488,315.440613 
	C159.380295,315.440613 163.992844,315.440613 168.648224,315.440613 
	C168.648224,312.636383 168.648224,310.232056 168.648224,307.705322 
	C155.449478,307.705322 142.547653,307.705322 129.535904,307.705322 
	C129.535904,310.412323 129.535904,312.800629 129.535904,315.660645 
	C134.422333,315.660645 139.003693,315.660645 143.979904,315.660645 
	C143.979904,319.589813 143.979904,323.053467 143.979950,327.513153 
z"/>
<path fill="#FDFEFE" opacity="1.000000" stroke="none" 
	d="
M221.324081,269.059723 
	C211.774078,275.063690 202.335007,281.256195 192.617065,286.974792 
	C188.955963,289.129211 184.752945,290.595093 180.612122,291.647736 
	C174.318176,293.247742 169.753937,289.734497 169.061371,283.279358 
	C168.706161,279.968628 168.661926,276.623169 168.269211,273.318115 
	C167.355072,265.624817 162.907028,262.181213 155.461380,264.533081 
	C148.706482,266.666779 142.105545,269.626282 135.893326,273.050171 
	C128.842987,276.936005 122.300095,281.742554 114.826706,286.611298 
	C114.826706,284.417969 114.826698,282.837250 114.826706,281.256561 
	C114.827019,245.925125 115.195534,210.587830 114.633575,175.265335 
	C114.429100,162.413727 124.151947,153.217987 136.782791,153.258652 
	C212.944580,153.503967 289.107971,153.503342 365.269775,153.262695 
	C378.333832,153.221420 387.492523,162.978088 387.336700,174.854095 
	C386.853577,211.679108 387.163361,248.514496 387.154144,285.345856 
	C387.153809,286.658569 387.033844,287.971313 386.921417,290.269745 
	C381.556488,290.874054 376.202820,292.013000 370.864014,291.947113 
	C363.666656,291.858398 359.147186,287.112579 359.017548,279.827850 
	C358.905273,273.520172 359.553436,267.199982 359.835754,260.884003 
	C360.384979,248.597366 356.637695,244.621918 343.623505,249.312546 
	C334.111053,252.741074 325.681671,259.233154 316.864410,264.517975 
	C304.486145,271.937164 292.312439,279.707977 279.776855,286.846466 
	C277.029175,288.411163 273.137970,288.198547 269.753174,288.348755 
	C266.376678,288.498596 265.073669,286.045807 265.083771,283.083008 
	C265.100189,278.264221 265.404144,273.446472 265.642548,268.107544 
	C265.698334,267.586823 265.712189,267.477417 266.120667,267.362000 
	C276.195038,267.231720 285.861450,267.274384 295.526581,267.182587 
	C302.430420,267.117035 305.999054,263.558563 306.013794,256.696991 
	C306.059998,235.198349 306.061890,213.699463 306.012085,192.200851 
	C305.996674,185.550873 302.426270,181.921234 295.923126,181.913635 
	C265.424988,181.878052 234.926727,181.881119 204.428558,181.911896 
	C198.055511,181.918320 194.241898,185.250443 194.196777,191.559494 
	C194.039459,213.556793 194.038040,235.556839 194.215530,257.553894 
	C194.266006,263.810852 198.100998,267.072021 204.540176,267.184265 
	C209.371796,267.268494 214.208832,267.126068 219.036102,267.294617 
	C219.818344,267.321930 220.562378,268.443787 221.324081,269.059723 
z"/>
<path fill="#118944" opacity="1.000000" stroke="none" 
	d="
M221.572571,268.954987 
	C220.562378,268.443787 219.818344,267.321930 219.036102,267.294617 
	C214.208832,267.126068 209.371796,267.268494 204.540176,267.184265 
	C198.100998,267.072021 194.266006,263.810852 194.215530,257.553894 
	C194.038040,235.556839 194.039459,213.556793 194.196777,191.559494 
	C194.241898,185.250443 198.055511,181.918320 204.428558,181.911896 
	C234.926727,181.881119 265.424988,181.878052 295.923126,181.913635 
	C302.426270,181.921234 305.996674,185.550873 306.012085,192.200851 
	C306.061890,213.699463 306.059998,235.198349 306.013794,256.696991 
	C305.999054,263.558563 302.430420,267.117035 295.526581,267.182587 
	C285.861450,267.274384 276.195038,267.231720 265.611084,267.253174 
	C252.307877,267.193176 239.922714,267.097931 227.537598,267.104218 
	C226.291687,267.104858 225.046051,267.720184 223.800293,268.050232 
	C223.140549,268.316895 222.480820,268.583588 221.572571,268.954987 
M278.499268,262.427917 
	C283.664429,262.426910 288.831329,262.509949 293.994293,262.402283 
	C299.653748,262.284271 300.983307,260.884338 300.990631,255.154327 
	C301.016571,234.827087 301.014191,214.499786 300.993134,194.172546 
	C300.986481,187.750305 299.853058,186.590973 293.388733,186.584671 
	C264.564026,186.556580 235.739243,186.558044 206.914536,186.581879 
	C200.245407,186.587387 199.110138,187.767960 199.104034,194.520142 
	C199.086273,214.180923 199.094360,233.841751 199.099030,253.502548 
	C199.100906,261.386719 200.115036,262.418427 208.020218,262.423035 
	C231.179977,262.436493 254.339722,262.427948 278.499268,262.427917 
z"/>
<path fill="#F7FBF8" opacity="1.000000" stroke="none" 
	d="
M349.613708,307.433167 
	C351.891235,307.626007 353.731049,307.692200 355.527008,308.008026 
	C360.733551,308.923584 365.016449,311.209106 366.742981,316.602722 
	C368.462799,321.975494 366.861969,326.243652 362.220734,330.202606 
	C364.200134,333.175293 367.027710,335.834351 367.885254,339.023163 
	C370.007935,346.916382 365.932739,353.733002 357.837708,354.958801 
	C349.575928,356.209869 341.087097,355.961395 332.447083,356.381622 
	C332.447083,339.754028 332.447083,324.009644 332.447083,307.420563 
	C338.008270,307.420563 343.582123,307.420563 349.613708,307.433167 
M357.986511,338.997742 
	C354.192566,331.871918 347.881622,336.059448 342.571747,334.893707 
	C342.571747,339.633209 342.571747,343.680176 342.571747,347.975220 
	C345.536987,347.975220 348.179382,348.061188 350.814301,347.957458 
	C356.444855,347.735931 358.163757,345.778625 357.986511,338.997742 
M348.291260,327.879486 
	C351.146454,326.630432 354.419739,325.857788 356.652069,323.898895 
	C357.550995,323.110077 356.736542,318.157684 355.724915,317.790283 
	C351.623413,316.300751 347.142181,315.856812 342.235474,314.919098 
	C342.235474,318.222809 342.235474,320.026855 342.235474,321.830902 
	C342.235474,323.758270 342.235474,325.685638 342.235474,327.879974 
	C344.445801,327.879974 345.930084,327.879974 348.291260,327.879486 
z"/>
<path fill="#F9FCFA" opacity="1.000000" stroke="none" 
	d="
M303.723969,355.991943 
	C298.318817,356.005829 293.379547,356.005829 288.029633,356.005829 
	C288.029633,340.968567 288.024384,326.389343 288.038727,311.810120 
	C288.039978,310.517883 288.169006,309.225800 288.279510,307.176636 
	C295.239960,307.490662 302.058624,307.340668 308.718628,308.296295 
	C311.938171,308.758270 315.376801,310.737976 317.822357,312.997803 
	C326.293396,320.825439 326.663818,330.951324 323.821014,341.115540 
	C321.158722,350.634338 313.951172,355.266663 303.723969,355.991943 
M314.750183,326.262115 
	C312.207916,316.932404 307.831726,314.271912 298.409363,316.287994 
	C298.409363,326.818146 298.409363,337.333862 298.409363,347.824585 
	C309.635651,348.306366 314.320312,344.649750 314.920715,335.079773 
	C315.086578,332.436920 314.899536,329.771912 314.750183,326.262115 
z"/>
<path fill="#F7FBF9" opacity="1.000000" stroke="none" 
	d="
M212.108582,344.972534 
	C212.108627,331.525330 212.108627,318.574371 212.108627,305.240417 
	C215.372238,305.240417 218.395172,305.240417 221.759964,305.240417 
	C221.759964,310.736603 221.759964,316.177948 221.759964,322.138214 
	C223.055649,321.563629 223.893051,321.227112 224.700027,320.828979 
	C232.036240,317.209625 239.739014,319.930786 242.836426,327.503937 
	C245.375839,333.712860 245.435684,340.203217 243.542969,346.572418 
	C240.544235,356.663483 231.449860,359.422882 223.403976,354.360016 
	C219.007950,355.248016 215.944565,355.866852 212.108551,356.641724 
	C212.108551,352.338684 212.108551,348.903717 212.108582,344.972534 
M234.752365,342.754425 
	C234.542160,338.994995 234.745972,335.151550 234.004852,331.499847 
	C233.269119,327.874603 230.223480,326.601532 226.710617,327.265625 
	C223.374237,327.896332 221.583557,329.928253 221.869781,333.587921 
	C222.062546,336.052704 222.069626,338.558105 221.868683,341.021576 
	C221.548157,344.950897 222.482010,348.014191 226.825668,348.767487 
	C230.937927,349.480591 233.443115,347.490448 234.752365,342.754425 
z"/>
<path fill="#F8FCFA" opacity="1.000000" stroke="none" 
	d="
M276.251556,322.654541 
	C281.683319,327.707031 282.141846,333.913818 281.840973,340.804077 
	C274.346039,340.804077 266.918213,340.804077 259.434662,340.804077 
	C260.670563,349.644958 267.962952,351.384552 276.608368,345.121918 
	C278.013062,346.700989 279.434387,348.298737 280.820709,349.857147 
	C275.453644,357.296448 264.011200,358.956268 256.278625,353.593445 
	C248.570480,348.247650 246.607468,335.258179 252.188309,326.527649 
	C257.114716,318.820923 267.205902,317.071320 276.251556,322.654541 
M271.734161,334.281647 
	C273.025452,329.830292 270.692871,327.716125 266.733276,327.098083 
	C262.603058,326.453430 260.084717,329.145538 259.552704,334.565033 
	C263.352600,334.565033 267.130524,334.565033 271.734161,334.281647 
z"/>
<path fill="#FAFCFB" opacity="1.000000" stroke="none" 
	d="
M204.939545,323.219177 
	C204.940079,334.307373 204.940079,344.914124 204.940079,355.456177 
	C197.735687,356.524536 197.088776,356.400940 195.116882,353.733093 
	C192.850754,354.626190 190.661346,355.839111 188.318939,356.348633 
	C180.271744,358.099152 174.291916,353.688354 173.977386,345.475037 
	C173.660141,337.190399 173.907501,328.884125 173.907501,320.273132 
	C176.920013,320.273132 179.810379,320.273132 183.278290,320.273132 
	C183.278290,327.391663 183.282623,334.480377 183.276535,341.569122 
	C183.273315,345.335083 183.782852,348.747986 188.660324,348.860596 
	C193.163467,348.964630 195.112106,346.741730 195.122818,341.576263 
	C195.137268,334.609955 195.126404,327.643585 195.126404,319.719147 
	C198.530594,321.540619 202.923859,316.617798 204.939545,323.219177 
z"/>
<path fill="#F4F9F6" opacity="1.000000" stroke="none" 
	d="
M143.979919,327.015137 
	C143.979904,323.053467 143.979904,319.589813 143.979904,315.660645 
	C139.003693,315.660645 134.422333,315.660645 129.535904,315.660645 
	C129.535904,312.800629 129.535904,310.412323 129.535904,307.705322 
	C142.547653,307.705322 155.449478,307.705322 168.648224,307.705322 
	C168.648224,310.232056 168.648224,312.636383 168.648224,315.440613 
	C163.992844,315.440613 159.380295,315.440613 154.265488,315.440613 
	C154.265488,329.013977 154.265488,342.215637 154.265488,355.716064 
	C150.711609,355.716064 147.644135,355.716064 143.979950,355.716064 
	C143.979950,346.357147 143.979950,336.935150 143.979919,327.015137 
z"/>
<path fill="#359A60" opacity="1.000000" stroke="none" 
	d="
M224.289841,268.028381 
	C225.046051,267.720184 226.291687,267.104858 227.537598,267.104218 
	C239.922714,267.097931 252.307877,267.193176 265.202606,267.368591 
	C265.712189,267.477417 265.698334,267.586823 265.651093,267.615112 
	C251.995697,267.764465 238.387543,267.885529 224.289841,268.028381 
z"/>
<path fill="#FEFEFE" opacity="1.000000" stroke="none" 
	d="
M277.999390,262.427979 
	C254.339722,262.427948 231.179977,262.436493 208.020218,262.423035 
	C200.115036,262.418427 199.100906,261.386719 199.099030,253.502548 
	C199.094360,233.841751 199.086273,214.180923 199.104034,194.520142 
	C199.110138,187.767960 200.245407,186.587387 206.914536,186.581879 
	C235.739243,186.558044 264.564026,186.556580 293.388733,186.584671 
	C299.853058,186.590973 300.986481,187.750305 300.993134,194.172546 
	C301.014191,214.499786 301.016571,234.827087 300.990631,255.154327 
	C300.983307,260.884338 299.653748,262.284271 293.994293,262.402283 
	C288.831329,262.509949 283.664429,262.426910 277.999390,262.427979 
M280.279846,223.019241 
	C263.873352,213.575836 247.466843,204.132431 230.773315,194.523804 
	C230.773315,215.162552 230.773315,234.799805 230.773315,254.917557 
	C248.467224,244.738586 265.646149,234.855865 283.090515,224.820450 
	C281.987701,224.082596 281.438141,223.714905 280.279846,223.019241 
z"/>
<path fill="#09843D" opacity="1.000000" stroke="none" 
	d="
M358.057678,339.411682 
	C358.163757,345.778625 356.444855,347.735931 350.814301,347.957458 
	C348.179382,348.061188 345.536987,347.975220 342.571747,347.975220 
	C342.571747,343.680176 342.571747,339.633209 342.571747,334.893707 
	C347.881622,336.059448 354.192566,331.871918 358.057678,339.411682 
z"/>
<path fill="#0B8640" opacity="1.000000" stroke="none" 
	d="
M347.852844,327.879730 
	C345.930084,327.879974 344.445801,327.879974 342.235474,327.879974 
	C342.235474,325.685638 342.235474,323.758270 342.235474,321.830902 
	C342.235474,320.026855 342.235474,318.222809 342.235474,314.919098 
	C347.142181,315.856812 351.623413,316.300751 355.724915,317.790283 
	C356.736542,318.157684 357.550995,323.110077 356.652069,323.898895 
	C354.419739,325.857788 351.146454,326.630432 347.852844,327.879730 
z"/>
<path fill="#04823A" opacity="1.000000" stroke="none" 
	d="
M314.812317,326.689575 
	C314.899536,329.771912 315.086578,332.436920 314.920715,335.079773 
	C314.320312,344.649750 309.635651,348.306366 298.409363,347.824585 
	C298.409363,337.333862 298.409363,326.818146 298.409363,316.287994 
	C307.831726,314.271912 312.207916,316.932404 314.812317,326.689575 
z"/>
<path fill="#05823A" opacity="1.000000" stroke="none" 
	d="
M234.641586,343.158203 
	C233.443115,347.490448 230.937927,349.480591 226.825668,348.767487 
	C222.482010,348.014191 221.548157,344.950897 221.868683,341.021576 
	C222.069626,338.558105 222.062546,336.052704 221.869781,333.587921 
	C221.583557,329.928253 223.374237,327.896332 226.710617,327.265625 
	C230.223480,326.601532 233.269119,327.874603 234.004852,331.499847 
	C234.745972,335.151550 234.542160,338.994995 234.641586,343.158203 
z"/>
<path fill="#1B8D4C" opacity="1.000000" stroke="none" 
	d="
M271.321289,334.423340 
	C267.130524,334.565033 263.352600,334.565033 259.552704,334.565033 
	C260.084717,329.145538 262.603058,326.453430 266.733276,327.098083 
	C270.692871,327.716125 273.025452,329.830292 271.321289,334.423340 
z"/>
<path fill="#06833C" opacity="1.000000" stroke="none" 
	d="
M280.584198,223.183228 
	C281.438141,223.714905 281.987701,224.082596 283.090515,224.820450 
	C265.646149,234.855865 248.467224,244.738586 230.773315,254.917557 
	C230.773315,234.799805 230.773315,215.162552 230.773315,194.523804 
	C247.466843,204.132431 263.873352,213.575836 280.584198,223.183228 
z"/>
</svg>