<svg width="260" height="260" viewBox="0 0 260 260" fill="none" xmlns="http://www.w3.org/2000/svg">
<rect width="260" height="260" fill="#F5F5F5"/>
<path d="M44.6467 68.2829C44.6467 56.6793 54.0531 47.2727 65.6567 47.2727H86.6667C98.2705 47.2727 107.677 56.6793 107.677 68.2829V89.2927C107.677 100.897 98.2705 110.303 86.6667 110.303H65.6567C54.0531 110.303 44.6467 100.897 44.6467 89.2927V68.2829Z" stroke="#FF0000" stroke-width="6" stroke-linecap="round" stroke-linejoin="round"/>
<path d="M149.697 68.2829C149.697 56.6793 159.103 47.2727 170.707 47.2727H191.718C203.321 47.2727 212.727 56.6793 212.727 68.2829V89.2927C212.727 100.897 203.321 110.303 191.718 110.303H170.707C159.103 110.303 149.697 100.897 149.697 89.2927V68.2829Z" stroke="#FF0000" stroke-width="6" stroke-linecap="round" stroke-linejoin="round"/>
<path d="M44.6467 173.333C44.6467 161.729 54.0531 152.323 65.6567 152.323H86.6667C98.2705 152.323 107.677 161.729 107.677 173.333V194.344C107.677 205.947 98.2705 215.353 86.6667 215.353H65.6567C54.0531 215.353 44.6467 205.947 44.6467 194.344V173.333Z" stroke="#FF0000" stroke-width="6" stroke-linecap="round" stroke-linejoin="round"/>
<path d="M149.697 173.333C149.697 161.729 159.103 152.323 170.707 152.323H191.718C203.321 152.323 212.727 161.729 212.727 173.333V194.344C212.727 205.947 203.321 215.353 191.718 215.353H170.707C159.103 215.353 149.697 205.947 149.697 194.344V173.333Z" stroke="#FF0000" stroke-width="6" stroke-linecap="round" stroke-linejoin="round"/>
</svg>
