<svg width="360" height="260" viewBox="0 0 360 260" fill="none" xmlns="http://www.w3.org/2000/svg">
<rect x="14.5" y="12.5" width="324" height="234" rx="56.5" fill="#C02727" stroke="black"/>
<rect x="35" y="30" width="281" height="199" rx="57" fill="#F71212"/>
<rect x="92" y="68" width="166" height="83" rx="24" fill="black"/>
<path d="M79.7756 170.975V164.636H109.641V170.975H98.5078V201H90.9084V170.975H79.7756ZM128.195 189.388V173.727H135.759V201H128.497V196.046H128.213C127.598 197.644 126.574 198.929 125.141 199.899C123.721 200.87 121.987 201.355 119.939 201.355C118.116 201.355 116.512 200.941 115.127 200.112C113.742 199.284 112.659 198.106 111.878 196.579C111.108 195.052 110.718 193.223 110.706 191.092V173.727H118.27V189.743C118.282 191.353 118.714 192.625 119.566 193.56C120.418 194.496 121.561 194.963 122.993 194.963C123.904 194.963 124.757 194.756 125.55 194.342C126.343 193.915 126.982 193.288 127.467 192.46C127.964 191.631 128.207 190.607 128.195 189.388ZM141.952 201V164.636H149.515V178.308H149.746C150.078 177.574 150.557 176.829 151.184 176.071C151.824 175.302 152.652 174.662 153.67 174.153C154.7 173.633 155.979 173.372 157.506 173.372C159.494 173.372 161.329 173.893 163.01 174.935C164.691 175.964 166.034 177.521 167.04 179.604C168.046 181.676 168.55 184.274 168.55 187.399C168.55 190.441 168.058 193.01 167.076 195.105C166.105 197.188 164.779 198.769 163.099 199.846C161.43 200.911 159.559 201.444 157.488 201.444C156.02 201.444 154.771 201.201 153.741 200.716C152.723 200.231 151.889 199.621 151.238 198.887C150.587 198.141 150.09 197.39 149.746 196.632H149.409V201H141.952ZM149.356 187.364C149.356 188.985 149.581 190.4 150.03 191.607C150.48 192.815 151.131 193.756 151.983 194.43C152.836 195.093 153.872 195.425 155.091 195.425C156.322 195.425 157.363 195.087 158.216 194.413C159.068 193.726 159.713 192.779 160.151 191.572C160.601 190.353 160.826 188.95 160.826 187.364C160.826 185.789 160.607 184.404 160.169 183.209C159.731 182.013 159.086 181.078 158.233 180.403C157.381 179.729 156.334 179.391 155.091 179.391C153.86 179.391 152.818 179.717 151.966 180.368C151.125 181.019 150.48 181.942 150.03 183.138C149.581 184.333 149.356 185.742 149.356 187.364ZM186.026 201.533C183.22 201.533 180.805 200.964 178.781 199.828C176.769 198.68 175.218 197.058 174.129 194.963C173.04 192.856 172.496 190.364 172.496 187.488C172.496 184.683 173.04 182.22 174.129 180.102C175.218 177.983 176.751 176.331 178.728 175.148C180.717 173.964 183.049 173.372 185.724 173.372C187.523 173.372 189.198 173.662 190.749 174.242C192.311 174.81 193.672 175.669 194.832 176.817C196.004 177.965 196.916 179.409 197.567 181.149C198.218 182.877 198.543 184.902 198.543 187.222V189.299H175.514V184.612H191.423C191.423 183.522 191.187 182.558 190.713 181.717C190.24 180.877 189.583 180.22 188.742 179.746C187.914 179.261 186.949 179.018 185.848 179.018C184.7 179.018 183.682 179.285 182.794 179.817C181.918 180.338 181.232 181.043 180.734 181.93C180.237 182.806 179.983 183.783 179.971 184.86V189.317C179.971 190.666 180.219 191.832 180.717 192.815C181.226 193.797 181.942 194.555 182.865 195.087C183.788 195.62 184.883 195.886 186.15 195.886C186.99 195.886 187.76 195.768 188.458 195.531C189.156 195.295 189.754 194.939 190.251 194.466C190.749 193.992 191.127 193.412 191.388 192.726L198.384 193.188C198.028 194.868 197.3 196.336 196.2 197.591C195.111 198.834 193.702 199.804 191.974 200.503C190.257 201.189 188.275 201.533 186.026 201.533ZM216.512 201H203.621V164.636H216.619C220.276 164.636 223.425 165.364 226.065 166.82C228.704 168.264 230.734 170.342 232.155 173.053C233.587 175.763 234.303 179.007 234.303 182.783C234.303 186.571 233.587 189.826 232.155 192.548C230.734 195.271 228.692 197.36 226.029 198.816C223.378 200.272 220.205 201 216.512 201ZM211.31 194.413H216.192C218.465 194.413 220.377 194.01 221.928 193.205C223.49 192.388 224.662 191.128 225.443 189.423C226.236 187.707 226.633 185.493 226.633 182.783C226.633 180.096 226.236 177.9 225.443 176.195C224.662 174.491 223.496 173.236 221.945 172.431C220.395 171.626 218.483 171.224 216.21 171.224H211.31V194.413ZM239.998 201V164.636H254.558C257.233 164.636 259.465 165.033 261.252 165.826C263.039 166.619 264.383 167.72 265.282 169.129C266.182 170.525 266.632 172.135 266.632 173.958C266.632 175.379 266.348 176.627 265.78 177.705C265.211 178.77 264.43 179.646 263.436 180.332C262.453 181.007 261.329 181.487 260.062 181.771V182.126C261.447 182.185 262.743 182.576 263.951 183.298C265.17 184.02 266.158 185.032 266.916 186.334C267.674 187.624 268.052 189.163 268.052 190.95C268.052 192.88 267.573 194.602 266.614 196.117C265.667 197.621 264.265 198.81 262.406 199.686C260.548 200.562 258.257 201 255.535 201H239.998ZM247.687 194.714H253.954C256.097 194.714 257.659 194.306 258.642 193.489C259.624 192.661 260.116 191.56 260.116 190.187C260.116 189.181 259.873 188.293 259.388 187.523C258.902 186.754 258.21 186.15 257.31 185.712C256.422 185.274 255.363 185.055 254.132 185.055H247.687V194.714ZM247.687 179.853H253.386C254.44 179.853 255.375 179.67 256.192 179.303C257.02 178.924 257.671 178.391 258.145 177.705C258.63 177.018 258.873 176.195 258.873 175.237C258.873 173.923 258.405 172.863 257.47 172.058C256.547 171.253 255.233 170.851 253.528 170.851H247.687V179.853Z" fill="white"/>
<path d="M152.75 79.6085L217.818 110L152.75 140.392L152.75 79.6085Z" fill="#F61212" stroke="black"/>
</svg>
