<svg width="33" height="33" viewBox="0 0 33 33" fill="none" xmlns="http://www.w3.org/2000/svg">
<path d="M5.66669 8.66667C5.66669 7.19391 6.86059 6 8.33335 6H11C12.4728 6 13.6667 7.19391 13.6667 8.66667V11.3333C13.6667 12.8061 12.4728 14 11 14H8.33335C6.86059 14 5.66669 12.8061 5.66669 11.3333V8.66667Z" stroke="#FAF3DD" stroke-width="2.66667" stroke-linecap="round" stroke-linejoin="round"/>
<path d="M19 8.66667C19 7.19391 20.1939 6 21.6667 6H24.3334C25.8061 6 27 7.19391 27 8.66667V11.3333C27 12.8061 25.8061 14 24.3334 14H21.6667C20.1939 14 19 12.8061 19 11.3333V8.66667Z" stroke="#FAF3DD" stroke-width="2.66667" stroke-linecap="round" stroke-linejoin="round"/>
<path d="M5.66669 22C5.66669 20.5272 6.86059 19.3333 8.33335 19.3333H11C12.4728 19.3333 13.6667 20.5272 13.6667 22V24.6667C13.6667 26.1394 12.4728 27.3333 11 27.3333H8.33335C6.86059 27.3333 5.66669 26.1394 5.66669 24.6667V22Z" stroke="#FAF3DD" stroke-width="2.66667" stroke-linecap="round" stroke-linejoin="round"/>
<path d="M19 22C19 20.5272 20.1939 19.3333 21.6667 19.3333H24.3334C25.8061 19.3333 27 20.5272 27 22V24.6667C27 26.1394 25.8061 27.3333 24.3334 27.3333H21.6667C20.1939 27.3333 19 26.1394 19 24.6667V22Z" stroke="#FAF3DD" stroke-width="2.66667" stroke-linecap="round" stroke-linejoin="round"/>
</svg>
